{
  "asset": {
    "generator": "Khronos glTF Blender I/O v1.6.8",
    "version": "2.0"
  },
  "extensionsUsed": [
    "KHR_texture_transform"
  ],
  "extensionsRequired": [
    "KHR_texture_transform"
  ],
  "scene": 0,
  "scenes": [
    {
      "name": "Scene",
      "nodes": [
        0
      ]
    }
  ],
  "nodes": [
    {
      "mesh": 0,
      "name": "sphere_gltf.001"
    }
  ],
  "materials": [
    {
      "doubleSided": true,
      "name": "coral_mud_01",
      "normalTexture": {
        "extensions": {
          "KHR_texture_transform": {
            "offset": [
              0,
              -1
            ],
            "scale": [
              2,
              2
            ]
          }
        },
        "index": 0
      },
      "pbrMetallicRoughness": {
        "baseColorTexture": {
          "extensions": {
            "KHR_texture_transform": {
              "offset": [
                0,
                -1
              ],
              "scale": [
                2,
                2
              ]
            }
          },
          "index": 1
        },
        "metallicFactor": 0,
        "metallicRoughnessTexture": {
          "extensions": {
            "KHR_texture_transform": {
              "offset": [
                0,
                -1
              ],
              "scale": [
                2,
                2
              ]
            }
          },
          "index": 2
        }
      }
    }
  ],
  "meshes": [
    {
      "name": "Sphere.002",
      "primitives": [
        {
          "attributes": {
            "POSITION": 0,
            "NORMAL": 1,
            "TEXCOORD_0": 2
          },
          "indices": 3,
          "material": 0
        }
      ]
    }
  ],
  "textures": [
    {
      "sampler": 0,
      "source": 0
    },
    {
      "sampler": 0,
      "source": 1
    },
    {
      "sampler": 0,
      "source": 2
    }
  ],
  "images": [
    {
      "mimeType": "image/jpeg",
      "name": "coral_mud_01_nor_gl_4k",
      "uri": "textures/coral_mud_01_nor_gl_1k.jpg"
    },
    {
      "mimeType": "image/jpeg",
      "name": "coral_mud_01_diff_4k",
      "uri": "textures/coral_mud_01_diff_1k.jpg"
    },
    {
      "mimeType": "image/jpeg",
      "name": "coral_mud_01_rough_4k",
      "uri": "textures/coral_mud_01_rough_1k.jpg"
    }
  ],
  "accessors": [
    {
      "bufferView": 0,
      "componentType": 5126,
      "count": 53892,
      "max": [
        1.0066958665847778,
        1.0226737260818481,
        1.0034143924713135
      ],
      "min": [
        -1.0066955089569092,
        -1.011588215827942,
        -1.0034096240997314
      ],
      "type": "VEC3"
    },
    {
      "bufferView": 1,
      "componentType": 5126,
      "count": 53892,
      "type": "VEC3"
    },
    {
      "bufferView": 2,
      "componentType": 5126,
      "count": 53892,
      "type": "VEC2"
    },
    {
      "bufferView": 3,
      "componentType": 5123,
      "count": 322170,
      "type": "SCALAR"
    }
  ],
  "bufferViews": [
    {
      "buffer": 0,
      "byteLength": 646704,
      "byteOffset": 0
    },
    {
      "buffer": 0,
      "byteLength": 646704,
      "byteOffset": 646704
    },
    {
      "buffer": 0,
      "byteLength": 431136,
      "byteOffset": 1293408
    },
    {
      "buffer": 0,
      "byteLength": 644340,
      "byteOffset": 1724544
    }
  ],
  "samplers": [
    {
      "magFilter": 9729,
      "minFilter": 9987
    }
  ],
  "buffers": [
    {
      "byteLength": 2368884,
      "uri": "coral_mud_01.bin"
    }
  ]
}