{
  "asset": {
    "generator": "Khronos glTF Blender I/O v3.5.30",
    "version": "2.0"
  },
  "scene": 0,
  "scenes": [
    {
      "name": "Scene",
      "nodes": [
        0
      ]
    }
  ],
  "nodes": [
    {
      "mesh": 0,
      "name": "coast_rocks_02"
    }
  ],
  "materials": [
    {
      "doubleSided": true,
      "name": "coast_rocks_02",
      "normalTexture": {
        "index": 0
      },
      "pbrMetallicRoughness": {
        "baseColorTexture": {
          "index": 1
        },
        "metallicFactor": 0,
        "metallicRoughnessTexture": {
          "index": 2
        }
      }
    }
  ],
  "meshes": [
    {
      "name": "Plane.001",
      "primitives": [
        {
          "attributes": {
            "POSITION": 0,
            "TEXCOORD_0": 1,
            "NORMAL": 2
          },
          "indices": 3,
          "material": 0
        }
      ]
    }
  ],
  "textures": [
    {
      "sampler": 0,
      "source": 0
    },
    {
      "sampler": 0,
      "source": 1
    },
    {
      "sampler": 0,
      "source": 2
    }
  ],
  "images": [
    {
      "mimeType": "image/jpeg",
      "name": "coast_rocks_02_nor_gl",
      "uri": "textures/coast_rocks_02_nor_gl_2k.jpg"
    },
    {
      "mimeType": "image/jpeg",
      "name": "coast_rocks_02_diff",
      "uri": "textures/coast_rocks_02_diff_2k.jpg"
    },
    {
      "mimeType": "image/jpeg",
      "name": "coast_rocks_02_rough",
      "uri": "textures/coast_rocks_02_arm_2k.jpg"
    }
  ],
  "accessors": [
    {
      "bufferView": 0,
      "componentType": 5126,
      "count": 648187,
      "max": [
        16.94154167175293,
        2.2516415119171143,
        33.77492904663086
      ],
      "min": [
        -29.02311134338379,
        -0.9197304248809814,
        -15.689910888671875
      ],
      "type": "VEC3"
    },
    {
      "bufferView": 1,
      "componentType": 5126,
      "count": 648187,
      "type": "VEC2"
    },
    {
      "bufferView": 2,
      "componentType": 5126,
      "count": 648187,
      "type": "VEC3"
    },
    {
      "bufferView": 3,
      "componentType": 5125,
      "count": 3781269,
      "type": "SCALAR"
    }
  ],
  "bufferViews": [
    {
      "buffer": 0,
      "byteLength": 7778244,
      "byteOffset": 0,
      "target": 34962
    },
    {
      "buffer": 0,
      "byteLength": 5185496,
      "byteOffset": 7778244,
      "target": 34962
    },
    {
      "buffer": 0,
      "byteLength": 7778244,
      "byteOffset": 12963740,
      "target": 34962
    },
    {
      "buffer": 0,
      "byteLength": 15125076,
      "byteOffset": 20741984,
      "target": 34963
    }
  ],
  "samplers": [
    {
      "magFilter": 9729,
      "minFilter": 9987
    }
  ],
  "buffers": [
    {
      "byteLength": 35867060,
      "uri": "coast_rocks_02.bin"
    }
  ]
}